<svg width="44" height="9" viewBox="0 0 44 9" fill="none" xmlns="http://www.w3.org/2000/svg">
<path d="M11.5401 0.00113211C11.563 0.000928202 11.5858 0.00134211 11.6094 0.00113211C11.7589 0.00312821 11.8366 0.0267988 11.9414 0.116366C12.0077 0.207419 12.0077 0.284183 11.9903 0.388827C11.9523 0.508743 11.8664 0.608607 11.7871 0.71207C11.7483 0.76411 11.7097 0.816279 11.6709 0.86832C11.6506 0.895268 11.6303 0.922592 11.6094 0.950351C11.5063 1.08764 11.4049 1.2261 11.3037 1.36441C11.2627 1.42032 11.2217 1.47648 11.1807 1.53238C11.0695 1.68403 10.9588 1.83625 10.8487 1.98844C10.6774 2.22514 10.5042 2.46164 10.3311 2.69742C10.1994 2.87695 10.0689 3.05726 9.93851 3.23746C9.74453 3.50543 9.54889 3.77244 9.35257 4.03922C9.28428 4.13203 9.21646 4.22504 9.14945 4.31851C8.96117 4.57979 8.79116 4.79567 8.43168 4.89469C8.33156 4.9111 8.23244 4.90917 8.13089 4.90836C8.09675 4.90824 8.09655 4.9075 8.06156 4.90738C8.01191 4.9072 7.96179 4.90767 7.91214 4.90738C7.83342 4.90694 7.75454 4.90661 7.67582 4.90641C7.45162 4.90578 7.22716 4.90462 7.00297 4.90348C6.86592 4.90279 6.72888 4.90278 6.59183 4.9025C6.53974 4.90234 6.4867 4.90188 6.43461 4.90152C6.01594 4.8987 5.61977 4.89994 5.28519 5.1398C5.16609 5.24713 5.08504 5.38005 4.99711 5.50601C4.97445 5.53798 4.95147 5.56979 4.92875 5.60172C4.88164 5.66796 4.83497 5.73457 4.78812 5.80094C4.69145 5.93763 4.59279 6.07343 4.49418 6.20914C4.30452 6.47033 4.11699 6.73287 3.92972 6.99527C3.68613 7.33651 3.44172 7.67743 3.19437 8.01676C3.1612 8.0623 3.1277 8.10781 3.09476 8.15348C2.9061 8.41467 2.73787 8.60369 2.38187 8.7023C2.25756 8.72264 2.13926 8.7309 2.01273 8.7316C1.97643 8.73185 1.93978 8.73233 1.90238 8.73258H1.72367C1.61799 8.73296 1.51197 8.73344 1.40629 8.73355C1.29769 8.73369 1.1887 8.73381 1.08011 8.73453C0.996181 8.735 0.912095 8.73547 0.82816 8.73551C0.768915 8.73562 0.709669 8.736 0.650426 8.73648C0.415197 8.73599 0.248315 8.7284 0.0615588 8.59976C-0.0116633 8.48154 -0.0085444 8.37409 0.0146838 8.24332C0.0679024 8.13239 0.140334 8.03393 0.215856 7.93277C0.247267 7.88897 0.278246 7.84477 0.309606 7.80094C0.341725 7.75624 0.374753 7.71165 0.407262 7.66715C0.501233 7.53764 0.592069 7.40674 0.682653 7.27555C0.71765 7.22523 0.75212 7.17448 0.787145 7.12418C0.899406 6.96262 1.0109 6.79992 1.12211 6.63785C1.2853 6.40001 1.45029 6.16291 1.61527 5.92594C1.74513 5.73926 1.87346 5.55174 2.00199 5.36441C2.16495 5.12692 2.32932 4.89005 2.49418 4.65348C2.58877 4.5176 2.68317 4.38083 2.7764 4.2443C2.79149 4.22223 2.79126 4.22191 2.80668 4.19937C2.85568 4.1277 2.90539 4.05632 2.95414 3.98453C3.28022 3.50729 3.2798 3.50632 3.46781 3.44156C3.59797 3.41502 3.71057 3.41935 3.83793 3.45426C3.93111 3.50457 4.00484 3.56491 4.08109 3.63199C4.09906 3.64652 4.11727 3.66097 4.13578 3.67594C4.22541 3.74868 4.30934 3.82515 4.39066 3.90445C4.5269 4.03578 4.67055 4.16112 4.81351 4.28726C4.92385 4.38505 5.03083 4.48367 5.13089 4.58902C5.18225 4.63228 5.22727 4.65463 5.29496 4.67691C5.40239 4.67889 5.40285 4.67898 5.50785 4.65152C5.59978 4.56656 5.66906 4.47234 5.73929 4.37418C5.74947 4.36002 5.76006 4.34579 5.77054 4.33121C5.79229 4.30094 5.81432 4.2707 5.83597 4.24039C5.89365 4.15966 5.95182 4.07878 6.0098 3.9982C6.02138 3.98209 6.03303 3.96597 6.04496 3.94937C6.14467 3.81075 6.24581 3.67282 6.34769 3.53531C6.48357 3.35175 6.61837 3.16731 6.75199 2.98258C6.88748 2.79527 7.02349 2.6082 7.16117 2.42203C7.29694 2.23842 7.43182 2.054 7.56547 1.8693C7.77813 1.57549 7.99274 1.28283 8.20804 0.99039C8.27035 0.905458 8.33181 0.819735 8.39359 0.734531C8.43358 0.679813 8.47369 0.625175 8.51371 0.570468C8.54075 0.532861 8.54088 0.532563 8.56839 0.494296C8.73157 0.272392 8.89844 0.0845758 9.21 0.014804C9.40393 -0.00450928 9.60099 0.000305037 9.79593 0.00113211H11.1348C11.191 0.00119987 11.2476 0.000392258 11.3037 0.000155548C11.3823 -0.000103587 11.4615 0.000564947 11.5401 0.00113211Z" fill="#EC3B27"/>
<path d="M14.768 8.52024H14V0.120239H14.768V8.52024Z" fill="#111111"/>
<path d="M20.8855 2.52024V5.67624C20.8855 7.69224 19.7815 8.61624 18.2455 8.61624C16.7095 8.61624 15.6055 7.69224 15.6055 5.67624V2.52024H16.3735V5.67624C16.3735 7.17624 17.1295 7.88424 18.2455 7.88424C19.3615 7.88424 20.1175 7.17624 20.1175 5.67624V2.52024H20.8855Z" fill="#111111"/>
<path d="M27.0027 8.52024H26.2347V5.36424C26.2347 3.86424 25.4787 3.15624 24.3627 3.15624C23.2467 3.15624 22.4907 3.86424 22.4907 5.36424V8.52024H21.7227V5.36424C21.7227 3.34824 22.8267 2.42424 24.3627 2.42424C25.8987 2.42424 27.0027 3.34824 27.0027 5.36424V8.52024Z" fill="#111111"/>
<path d="M27.6627 5.53224C27.6627 3.82824 28.9827 2.42424 30.7107 2.42424C32.3307 2.42424 33.7107 3.63624 33.7587 5.43624C33.7707 5.55624 33.7587 5.66424 33.7467 5.76024H28.4667C28.5147 6.94824 29.4507 7.88424 30.7107 7.88424C31.4787 7.88424 32.1507 7.53624 32.5707 7.02024H33.5067C32.9547 7.99224 31.8747 8.61624 30.7227 8.61624C28.9947 8.61624 27.6627 7.23624 27.6627 5.53224ZM28.4667 5.11224H32.9427C32.7507 4.00824 31.8747 3.15624 30.7227 3.15624C29.5347 3.15624 28.6467 4.03224 28.4667 5.11224Z" fill="#111111"/>
<path d="M34.4141 8.52024V5.40024C34.4141 3.39624 35.4341 2.48424 36.8741 2.48424C36.9341 2.48424 36.9941 2.48424 37.0541 2.49624V3.22824C36.9941 3.21624 36.9341 3.21624 36.8741 3.21624C35.8661 3.21624 35.1821 3.91224 35.1821 5.40024V8.52024H34.4141Z" fill="#111111"/>
<path d="M40.3329 8.61624C38.6289 8.61624 37.2369 7.23624 37.2369 5.52024C37.2369 3.80424 38.6289 2.42424 40.3329 2.42424C42.0369 2.42424 43.4169 3.80424 43.4169 5.52024V8.52024H42.6489V7.23624C42.2529 8.02824 41.3529 8.61624 40.3329 8.61624ZM40.3449 7.88424C41.6409 7.88424 42.6609 6.84024 42.6609 5.52024C42.6609 4.20024 41.6649 3.15624 40.3449 3.15624C39.0249 3.15624 38.0049 4.20024 38.0049 5.52024C38.0049 6.84024 39.0489 7.88424 40.3449 7.88424Z" fill="#111111"/>
</svg>
